HIERARCHY
ROOT hip
{
	OFFSET 0.000000 0.000000 0.000000
	CHANNELS 6 Xposition Yposition Zposition Xrotation Zrotation Yrotation 
	JOINT abdomen
	{
		OFFSET 0.000000 3.422050 0.000000
		CHANNELS 3 Xrotation Zrotation Yrotation 
		JOINT chest
		{
			OFFSET 0.000000 8.486693 -0.684411
			CHANNELS 3 Xrotation Zrotation Yrotation 
			JOINT neck
			{
				OFFSET 0.000000 10.266162 -0.273764
				CHANNELS 3 Xrotation Zrotation Yrotation 
				JOINT head
				{
					OFFSET 0.000000 3.148285 0.000000
					CHANNELS 3 Xrotation Zrotation Yrotation 
					End Site
					{
						OFFSET 0.000000 3.148289 0.000000
					}
				}
			}
			JOINT lCollar
			{
				OFFSET 3.422053 6.707223 -0.821293
				CHANNELS 3 Yrotation Zrotation Xrotation 
				JOINT lShldr
				{
					OFFSET 3.285171 0.000000 0.000000
					CHANNELS 3 Zrotation Yrotation Xrotation 
					JOINT lForeArm
					{
						OFFSET 10.129278 0.000000 0.000000
						CHANNELS 3 Yrotation Zrotation Xrotation 
						JOINT lHand
						{
							OFFSET 8.486692 0.000000 0.000000
							CHANNELS 3 Zrotation Yrotation Xrotation 
							End Site
							{
								OFFSET 4.106464 0.000000 0.000000
							}
						}
					}
				}
			}
			JOINT rCollar
			{
				OFFSET -3.558935 6.707223 -0.821293
				CHANNELS 3 Yrotation Zrotation Xrotation 
				JOINT rShldr
				{
					OFFSET -3.148289 0.000000 0.000000
					CHANNELS 3 Zrotation Yrotation Xrotation 
					JOINT rForeArm
					{
						OFFSET -10.266159 0.000000 0.000000
						CHANNELS 3 Yrotation Zrotation Xrotation 
						JOINT rHand
						{
							OFFSET -8.349810 0.000000 0.000000
							CHANNELS 3 Zrotation Yrotation Xrotation 
							End Site
							{
								OFFSET -4.106464 0.000000 0.000000
							}
						}
					}
				}
			}
		}
	}
	JOINT lThigh
	{
		OFFSET 5.338403 -1.642589 1.368821
		CHANNELS 3 Xrotation Zrotation Yrotation 
		JOINT lShin
		{
			OFFSET -2.053232 -20.121670 0.000000
			CHANNELS 3 Xrotation Zrotation Yrotation 
			JOINT lFoot
			{
				OFFSET 0.000000 -19.300380 -1.231939
				CHANNELS 3 Xrotation Yrotation Zrotation 
				End Site
				{
					OFFSET 0.000000 -2.463878 4.653993
				}
			}
		}
	}
	JOINT rThigh
	{
		OFFSET -5.338403 -1.642589 1.368821
		CHANNELS 3 Xrotation Zrotation Yrotation 
		JOINT rShin
		{
			OFFSET 2.053232 -20.121670 0.000000
			CHANNELS 3 Xrotation Zrotation Yrotation 
			JOINT rFoot
			{
				OFFSET 0.000000 -19.300380 -1.231939
				CHANNELS 3 Xrotation Yrotation Zrotation 
				End Site
				{
					OFFSET 0.000000 -2.463878 4.653993
				}
			}
		}
	}
}
MOTION
Frames: 14
Frame Time: 0.071282
-0.135166 6.279140 22.957581 -80.742348 -0.056334 -175.264114 -52.696667 15.070012 5.859814 57.358864 14.701144 0.114174 9.989040 -9.999825 21.998360 4.995640 -6.001600 35.598289 21.232906 -12.428840 -37.125820 -96.838318 67.004143 19.467632 -62.817169 -3.197981 19.852322 10.651172 11.092351 -76.051620 -22.069283 -9.347091 -49.484680 58.774658 43.740627 5.923098 121.105186 14.176812 -7.762928 -35.000492 -34.500423 9.683622 -2.024504 7.965353 0.001026 18.877396 2.241652 -1.316915 19.555912 4.738409 11.289801 -3.647556 -8.633481 1.811782 22.079668 3.345836 -0.938643 39.290195 3.889762 -10.237910 
-0.135166 6.279140 22.957581 -80.837654 -0.054418 -175.315506 -52.696667 15.070012 5.859814 57.358864 14.701144 0.114174 9.989040 -9.999825 21.998360 4.995513 -6.001433 36.198605 21.082283 -12.370122 -36.991364 -96.854683 65.664581 20.180403 -61.279591 -3.399662 19.846804 10.024288 11.004742 -74.260818 -21.980024 -9.427744 -49.244091 58.744076 43.730530 5.885015 121.061142 14.172430 -7.753914 -35.000492 -34.500423 9.683622 -2.024504 7.965353 0.001026 18.877396 2.241652 -1.316915 19.555912 4.738409 11.289801 -3.657519 -8.649642 1.822336 22.079668 3.345836 -0.938643 39.290195 3.889762 -10.237910 
-0.135166 6.279140 22.957581 -80.930122 -0.052640 -175.365372 -52.696659 15.070012 5.859813 57.358864 14.701144 0.114174 9.989040 -9.999824 21.998360 4.995390 -6.001264 36.798923 20.931543 -12.311746 -36.856766 -96.908714 64.324936 20.859297 -59.741405 -3.601453 19.846704 9.394891 10.936384 -72.469048 -21.890396 -9.508026 -49.003296 58.713509 43.720417 5.846945 121.017105 14.168048 -7.744907 -35.000492 -34.500423 9.683622 -2.024504 7.965353 0.001026 18.877396 2.241652 -1.316915 19.555910 4.738409 11.289801 -3.667486 -8.665802 1.832892 22.079668 3.345836 -0.938643 39.290195 3.889762 -10.237910 
-0.135166 6.279140 22.957581 -81.019852 -0.050993 -175.413757 -52.696671 15.070013 5.859815 57.358871 14.701144 0.114173 9.989040 -9.999825 21.998363 4.995269 -6.001093 37.399231 20.780706 -12.253720 -36.722061 -96.995155 62.985901 21.509565 -58.203144 -3.803137 19.852028 8.763945 10.887398 -70.677551 -21.800409 -9.587933 -48.762329 58.682930 43.710270 5.808888 120.973061 14.163655 -7.735903 -35.000492 -34.500427 9.683622 -2.024504 7.965353 0.001026 18.877396 2.241652 -1.316915 19.555914 4.738410 11.289802 -3.677456 -8.681958 1.843452 22.079668 3.345836 -0.938643 39.290195 3.889762 -10.237910 
-0.135166 6.279140 22.957581 -81.106972 -0.049465 -175.460739 -52.696663 15.070012 5.859814 57.358864 14.701144 0.114174 9.989040 -9.999824 21.998360 4.995148 -6.000922 37.999485 20.629757 -12.196039 -36.587215 -97.109749 61.648064 22.135416 -56.665352 -4.004497 19.862776 8.132415 10.857821 -68.887482 -21.710066 -9.667468 -48.521183 58.652393 43.700127 5.770849 120.929016 14.159255 -7.726901 -35.000492 -34.500423 9.683622 -2.024504 7.965353 0.001026 18.877396 2.241652 -1.316915 19.555912 4.738409 11.289801 -3.687429 -8.698114 1.854015 22.079668 3.345836 -0.938643 39.290195 3.889762 -10.237910 
-0.135166 6.279140 22.957581 -81.191597 -0.048050 -175.506378 -52.696667 15.070012 5.859815 57.358871 14.701144 0.114174 9.989041 -9.999825 21.998362 4.995032 -6.000751 38.599667 20.478706 -12.138707 -36.452251 -97.249001 60.312080 22.740356 -55.128529 -4.205311 19.878922 7.501264 10.847634 -67.100067 -21.619358 -9.746624 -48.279850 58.621861 43.689976 5.732821 120.884979 14.154851 -7.717905 -35.000492 -34.500427 9.683622 -2.024504 7.965353 0.001026 18.877396 2.241652 -1.316915 19.555914 4.738410 11.289801 -3.697406 -8.714266 1.864581 22.079668 3.345836 -0.938643 39.290199 3.889763 -10.237911 
-0.135166 6.279140 22.957581 -81.273827 -0.046740 -175.550705 -52.696667 15.070012 5.859814 57.358864 14.701142 0.114174 9.989040 -9.999824 21.998358 4.994915 -6.000576 39.199718 20.327560 -12.081725 -36.317173 -97.409966 58.978512 23.327259 -53.593220 -4.405365 19.900438 6.871449 10.856748 -65.316475 -21.528299 -9.825403 -48.038353 58.591343 43.679794 5.694809 120.840950 14.150437 -7.708910 -35.000488 -34.500423 9.683623 -2.024504 7.965353 0.001026 18.877396 2.241652 -1.316915 19.555912 4.738409 11.289800 -3.707385 -8.730418 1.875151 22.079666 3.345836 -0.938643 39.290195 3.889762 -10.237910 
-0.135166 6.279140 22.957581 -81.353752 -0.045526 -175.593826 -52.696671 15.070013 5.859813 57.358864 14.701144 0.114174 9.989041 -9.999825 21.998362 4.994801 -6.000401 39.799633 20.176311 -12.025093 -36.181961 -97.590202 57.647957 23.898560 -52.059933 -4.604445 19.927277 6.243918 10.885004 -63.537891 -21.436888 -9.903795 -47.796680 58.560848 43.669605 5.656810 120.796921 14.146020 -7.699921 -35.000492 -34.500423 9.683622 -2.024504 7.965353 0.001026 18.877396 2.241652 -1.316915 19.555916 4.738410 11.289802 -3.717369 -8.746568 1.885724 22.079668 3.345836 -0.938643 39.290199 3.889763 -10.237911 
-0.135166 6.279140 22.957581 -81.431511 -0.044405 -175.635757 -52.696667 15.070012 5.859814 57.358864 14.701142 0.114173 9.989039 -9.999824 21.998360 4.994688 -6.000225 40.399345 20.024969 -11.968818 -36.046650 -97.787598 56.320965 24.456276 -50.529186 -4.802343 19.959396 5.619596 10.932182 -61.765450 -21.345121 -9.981804 -47.554836 58.530373 43.659401 5.618828 120.752899 14.141594 -7.690936 -35.000492 -34.500423 9.683622 -2.024504 7.965353 0.001026 18.877396 2.241652 -1.316915 19.555912 4.738409 11.289801 -3.727355 -8.762715 1.896300 22.079666 3.345836 -0.938643 39.290195 3.889762 -10.237910 
-0.135166 6.279140 22.957581 -81.507133 -0.043368 -175.676559 -52.696671 15.070012 5.859813 57.358864 14.701144 0.114174 9.989040 -9.999825 21.998363 4.994577 -6.000048 40.998875 19.873524 -11.912889 -35.911209 -98.000412 54.998077 25.002129 -49.001495 -4.998850 19.996719 4.999388 10.997997 -60.000263 -21.253002 -10.059423 -47.312813 58.499889 43.649178 5.580856 120.708870 14.137166 -7.681955 -35.000492 -34.500423 9.683622 -2.024504 7.965353 0.001026 18.877396 2.241652 -1.316915 19.555912 4.738409 11.289801 -3.737346 -8.778863 1.906879 22.079668 3.345836 -0.938643 39.290199 3.889763 -10.237911 
-0.135166 6.279140 22.957581 -81.580765 -0.042410 -175.716248 -52.696667 15.070012 5.859813 57.358864 14.701142 0.114173 9.989039 -9.999824 21.998360 4.994688 -6.000225 40.399345 20.024963 -11.968816 -36.046642 -97.787567 56.320946 24.456272 -50.529194 -4.802344 19.959396 5.619596 10.932182 -61.765450 -21.345121 -9.981804 -47.554836 58.469410 43.638924 5.542901 120.664841 14.132726 -7.672975 -35.000492 -34.500423 9.683622 -2.024504 7.965353 0.001026 18.877396 2.241652 -1.316915 19.555910 4.738409 11.289801 -3.747339 -8.795006 1.917462 22.079666 3.345836 -0.938643 39.290195 3.889762 -10.237910 
-0.135166 6.279140 22.957581 -81.652412 -0.041527 -175.754913 -52.696667 15.070012 5.859814 57.358864 14.701144 0.114174 9.989040 -9.999825 21.998362 4.994801 -6.000401 39.799633 20.176311 -12.025094 -36.181965 -97.590164 57.647938 23.898552 -52.059933 -4.604445 19.927277 6.243918 10.885004 -63.537891 -21.436888 -9.903795 -47.796680 58.438961 43.628670 5.504955 120.620811 14.128280 -7.664001 -35.000492 -34.500423 9.683622 -2.024504 7.965353 0.001026 18.877396 2.241652 -1.316915 19.555912 4.738409 11.289801 -3.757337 -8.811148 1.928048 22.079668 3.345836 -0.938643 39.290199 3.889763 -10.237911 
-0.135166 6.279140 22.957581 -81.722214 -0.040714 -175.792557 -52.696667 15.070012 5.859814 57.358864 14.701144 0.114174 9.989040 -9.999824 21.998360 4.994915 -6.000576 39.199718 20.327560 -12.081726 -36.317173 -97.409988 58.978519 23.327257 -53.593227 -4.405366 19.900438 6.871448 10.856746 -65.316475 -21.528301 -9.825403 -48.038357 58.408546 43.618423 5.467033 120.576797 14.123831 -7.655031 -35.000492 -34.500423 9.683622 -2.024504 7.965353 0.001026 18.877396 2.241652 -1.316915 19.555910 4.738409 11.289801 -3.767337 -8.827289 1.938637 22.079666 3.345836 -0.938643 39.290195 3.889762 -10.237910 
-0.135166 6.279140 22.957581 -81.790215 -0.039965 -175.829239 -52.696667 15.070012 5.859814 57.358864 14.701144 0.114174 9.989040 -9.999825 21.998362 4.995032 -6.000751 38.599667 20.478706 -12.138707 -36.452251 -97.249001 60.312080 22.740353 -55.128529 -4.205310 19.878922 7.501263 10.847635 -67.100075 -21.619358 -9.746623 -48.279850 58.378139 43.608139 5.429119 120.532784 14.119371 -7.646065 -35.000492 -34.500423 9.683622 -2.024504 7.965353 0.001026 18.877396 2.241652 -1.316915 19.555916 4.738410 11.289803 -3.777341 -8.843426 1.949229 22.079668 3.345836 -0.938643 39.290199 3.889763 -10.237911 
